<svg width="73" height="107" viewBox="0 0 73 107" fill="none" xmlns="http://www.w3.org/2000/svg">
  <g clip-path="url(#clip0_94_3125)">
    <path
      d="M15.1483 40.6195C15.1483 40.6195 6.74158 42.4316 7.95993 49.4153C8.06146 49.4153 15.1483 49.0489 15.1483 40.6195Z"
      fill="#009BE2" />
    <path
      d="M5.13743 46.5242C5.13743 46.5242 7.16803 47.0332 7.45231 51.2479C7.45231 51.2479 11.1683 48.3363 13.0365 48.886C13.0365 48.886 13.6253 54.587 5.64508 55.6051C5.64508 55.5847 1.15746 52.1641 5.13743 46.5242Z"
      fill="#009BE2" />
    <path
      d="M1.15744 52.1031C1.15744 52.1031 4.85313 54.4242 4.62977 57.6208C4.62977 57.6208 7.67566 54.7093 9.70626 55.5848C9.70626 55.5848 9.48289 61.2654 4.62977 61.4894C-0.223365 61.7134 1.15744 52.1031 1.15744 52.1031Z"
      fill="#009BE2" />
    <path
      d="M0.14216 60.8989C1.14072 61.019 2.08053 61.4362 2.84054 62.0966C3.60054 62.7571 4.14592 63.6306 4.40641 64.6046C4.62093 63.6034 5.15543 62.6999 5.92873 62.031C6.70202 61.3622 7.67186 60.9647 8.69098 60.8989C9.01632 62.272 8.93827 63.7102 8.46623 65.0398C7.9942 66.3694 7.14837 67.5336 6.0309 68.3917C6.0309 68.3917 -1.07619 68.2492 0.162471 61.4894"
      fill="#009BE2" />
    <path
      d="M1.66505 68.3918C1.66505 68.3918 5.9293 68.9619 7.31011 71.1609C7.31011 71.1609 7.89898 65.5617 9.19857 65.2563C9.19857 65.2563 13.1176 68.3104 10.5794 75.2331C10.5794 75.2331 0.71067 74.9073 1.66505 68.3918Z"
      fill="#009BE2" />
    <path
      d="M3.47229 77.0654C6.10896 76.6439 8.79558 76.6439 11.4322 77.0654C11.4322 77.0654 11.879 71.4051 13.4628 70.9571C15.0467 70.5092 17.524 79.3254 16.4478 81.504C15.3716 83.6826 4.77187 80.7507 3.47229 77.0654Z"
      fill="#009BE2" />
    <path
      d="M19.8592 82.7868C19.8592 82.7868 16.6712 79.8141 17.5443 76.6785C17.5443 76.6785 28.4283 77.7169 25.8089 84.0491C25.8089 84.0491 25.0779 88.1213 11.087 85.2911C13.5715 83.3373 16.721 82.4381 19.8592 82.7868Z"
      fill="#009BE2" />
    <path
      d="M57.8314 40.5791C57.8314 40.5791 66.2381 42.4116 65.0198 49.3749C65.0198 49.3749 57.8314 49.0288 57.8314 40.5791Z"
      fill="#009BE2" />
    <path
      d="M67.8423 46.5242C67.8423 46.5242 65.8117 47.0332 65.5274 51.2479C65.5274 51.2479 61.8114 48.3363 59.9433 48.886C59.9433 48.886 59.3544 54.587 67.3346 55.6051C67.3346 55.5643 71.8223 52.1437 67.8423 46.5242Z"
      fill="#009BE2" />
    <path
      d="M71.8222 52.0622C71.8222 52.0622 68.1266 54.4037 68.3499 57.6003C68.3499 57.6003 65.304 54.6887 63.2734 55.5642C63.2734 55.5642 63.4968 61.2449 68.3499 61.4485C73.2031 61.6521 71.8222 52.0622 71.8222 52.0622Z"
      fill="#009BE2" />
    <path
      d="M72.8375 60.8785C71.839 60.9986 70.8992 61.4157 70.1392 62.0762C69.3791 62.7366 68.8338 63.6101 68.5733 64.5841C68.3619 63.5815 67.8283 62.676 67.0544 62.0067C66.2804 61.3373 65.3089 60.941 64.2887 60.8785C63.9634 62.2516 64.0414 63.6898 64.5135 65.0194C64.9855 66.349 65.8313 67.5131 66.9488 68.3712C66.9488 68.3712 74.0559 68.2287 72.8172 61.4486"
      fill="#009BE2" />
    <path
      d="M71.3146 68.3714C71.3146 68.3714 67.0503 68.9415 65.6695 71.1201C65.6695 71.1201 65.0807 65.5209 63.7811 65.2358C63.7811 65.2358 59.862 68.2899 62.4003 75.1922C62.4003 75.1922 72.269 74.8665 71.3146 68.3714Z"
      fill="#009BE2" />
    <path
      d="M69.5073 77.0654C66.8706 76.6439 64.184 76.6439 61.5474 77.0654C61.5474 77.0654 61.1006 71.4051 59.5168 70.9572C57.9329 70.5093 55.4556 79.3051 56.5318 81.4837C57.608 83.6623 68.2077 80.7303 69.5073 77.0654Z"
      fill="#009BE2" />
    <path
      d="M53.1205 82.7663C53.1205 82.7663 56.3085 79.7733 55.4354 76.5359C55.4354 76.5359 44.5514 77.5947 47.1708 83.9269C47.1708 83.9269 47.9019 87.9991 61.8927 85.1689C59.3932 83.2512 56.2452 82.389 53.1205 82.7663Z"
      fill="#009BE2" />
    <path
      d="M28.3674 90.5034H31.6976C31.6976 90.5034 31.2915 87.2457 36.632 87.49C41.9724 87.7343 41.4242 89.1188 41.5866 90.3405H45.0183L44.7138 88.3044C44.7138 88.3044 56.8973 92.3766 58.5421 87.042C58.5421 87.042 43.8406 86.1054 40.3683 84.049H33.1393C33.1393 84.049 19.4328 87.6936 14.7421 86.8792C14.7421 86.8792 15.0264 92.4376 28.6111 88.4062L28.3674 90.5034Z"
      fill="#009BE2" />
    <path
      d="M26.3369 44.0606C26.3369 44.0606 8.63006 70.0206 38.2768 84.2324C38.2768 84.2324 58.8264 70.9979 49.5872 44.0606C40.348 17.1234 34.9466 6.98374 35.5964 0C35.5964 0 21.3822 21.7453 30.0529 42.1264C38.7235 62.5075 41.079 67.5162 38.1753 76.1288C37.5092 70.5427 35.3009 65.254 31.7992 60.8583C28.2322 55.9896 26.3176 50.1018 26.3369 44.0606Z"
      fill="#009BE2" />
    <path
      d="M15.8184 106.385V92.8043H21.9102C26.1744 92.8043 29.3422 95.2476 29.3422 99.5844C29.3422 103.921 26.1744 106.385 21.9305 106.385H15.8184ZM19.8796 102.801H21.9102C22.3395 102.821 22.7684 102.752 23.1699 102.598C23.5714 102.444 23.937 102.209 24.2437 101.907C24.5505 101.605 24.792 101.243 24.953 100.844C25.1139 100.444 25.191 100.015 25.1794 99.5844C25.2143 99.1505 25.1536 98.7142 25.0018 98.3063C24.85 97.8984 24.6106 97.529 24.3007 97.224C23.9908 96.9191 23.6179 96.6862 23.2083 96.5417C22.7987 96.3972 22.3625 96.3446 21.9305 96.3878H19.8999L19.8796 102.801Z"
      fill="#009BE2" />
    <path
      d="M30.723 92.8043H34.7842V100.664C34.8386 101.249 35.1092 101.794 35.543 102.19C35.9769 102.587 36.5426 102.806 37.1295 102.806C37.7164 102.806 38.2822 102.587 38.716 102.19C39.1498 101.794 39.4204 101.249 39.4748 100.664V92.8043H43.536V100.786C43.536 104.166 41.607 106.629 37.0381 106.629C32.4693 106.629 30.5199 104.166 30.5199 100.806L30.723 92.8043Z"
      fill="#009BE2" />
    <path
      d="M46.9474 101.498C48.1236 102.624 49.6874 103.251 51.3132 103.249C52.0848 103.249 52.8158 102.985 52.8158 102.455C52.8158 101.926 52.2473 101.661 50.9071 101.417C48.6734 101.01 45.262 100.48 45.262 97.08C45.262 94.7792 47.1708 92.682 50.8868 92.682C52.958 92.6202 54.9849 93.2905 56.6131 94.5756L54.42 97.4261C53.3335 96.605 52.0229 96.1362 50.6634 96.0823C49.6481 96.0823 49.4247 96.4488 49.4247 96.7949C49.4247 97.141 49.973 97.5075 51.4553 97.7519C53.689 98.1387 56.9786 98.7903 56.9786 101.824C56.9786 104.858 54.7855 106.548 51.1508 106.548C48.8533 106.67 46.5978 105.896 44.8559 104.389L46.9474 101.498Z"
      fill="#009BE2" />
  </g>
  <defs>
    <clipPath id="clip0_94_3125">
      <rect width="73" height="106.629" fill="white" />
    </clipPath>
  </defs>
</svg>